<svg xmlns="http://www.w3.org/2000/svg" xmlns:xlink="http://www.w3.org/1999/xlink" x="0px" y="0px" viewBox="0 0 100 100" style="enable-background:new 0 0 100 100;" xml:space="preserve"><g>	<g>		<g>			<path d="M95.7,38.6c-0.3,0-0.5-0.1-0.7-0.3c-3.4-3.1-11.4-5.4-16.9-3.5l-0.6-2c5.3-1.8,12.2-0.4,16.7,2.2    c-1.7-5.2-6.1-8.4-13.2-9.7l0.4-2.1c9.1,1.6,14.4,6.6,15.5,14.2c0.1,0.4-0.1,0.9-0.6,1.1C96.1,38.5,95.8,38.6,95.7,38.6z"/>		</g>		<g>			<path d="M70.8,28.2l-1.9-1.1C73,19.8,79.5,13.8,86,11.2c-5-2.1-13.4,0.4-19,5.9l-1.5-1.5c7.1-7.1,18.4-9.4,23.6-4.9    c0.3,0.3,0.4,0.6,0.4,1.1c-0.1,0.4-0.4,0.7-0.8,0.8C82,14.6,75.1,20.5,70.8,28.2z"/>		</g>		<g>			<path d="M58.5,62.4c-0.3,0-0.5-0.1-0.7-0.3c-5.6-5.3-8.1-10.9-7.5-16.9l2.1,0.2c-0.5,4.7,1.1,9.1,5.1,13.4    c0.3-7.9,1.9-15.2,4.7-21.4l1.9,0.9c-3,6.6-4.6,14.5-4.6,23.1c0,0.4-0.3,0.8-0.6,1C58.8,62.4,58.7,62.4,58.5,62.4z"/>		</g>		<g>			<path d="M90.7,91.5l-2.1-0.2c2.9-28.3-5.1-47.2-25.2-59.5l1.1-1.9C85,42.5,93.6,62.7,90.7,91.5z"/>		</g>		<g>			<path d="M76.8,91.6l-2.1-0.5c6.8-29.3-1.6-39.6-7.7-47.2l1.6-1.4l-0.9,0.6l0.9-0.6C74.6,50.1,83.8,61.4,76.8,91.6z"/>		</g>		<g>			<path d="M37.1,49.1c-0.1,0-0.1,0-0.2,0c-0.4-0.1-0.7-0.4-0.8-0.8c-1.2-4.9,0.1-10.2,3.7-14.7c4-5,10.2-8,16.2-7.8L55.9,28    c-5.3-0.1-10.8,2.5-14.4,7c-2.6,3.3-3.9,7.1-3.6,10.7c5.1-5.4,13-10.8,19.3-11.7l0.3,2.1c-6.4,0.9-14.9,7.2-19.6,12.7    C37.7,48.9,37.4,49.1,37.1,49.1z"/>		</g>		<g>			<path d="M62.1,25.4c-0.7-5.2-3.4-8.9-7.6-10.5c-4.1-1.6-9.1-0.8-13.2,1.8c3.9,1,8.8,2.8,10.3,5.6l-1.9,1c-1-1.9-5.2-3.8-11.1-5    c-0.4-0.1-0.7-0.4-0.8-0.8s0-0.8,0.4-1.1c4.8-4.1,11.7-5.5,17.1-3.5c4.9,1.9,8.1,6.2,9,12.2L62.1,25.4z"/>		</g>	</g>	<g class="water-wave">		<g>			<path d="M72.8,76.6c-1.9,0-3.8-1.1-5.5-2.1c-1.6-0.9-3.1-1.9-4.4-1.9c-1.4,0-2.9,0.9-4.4,1.9c-1.8,1.1-3.6,2.1-5.5,2.1    s-3.8-1.1-5.5-2.1c-1.6-0.9-3.1-1.9-4.4-1.9c-1.3,0-2.9,0.9-4.4,1.9c-1.8,1.1-3.6,2.1-5.5,2.1c-1.9,0-3.8-1.1-5.5-2.1    c-1.6-0.9-3.1-1.9-4.4-1.9s-2.9,0.9-4.4,1.9c-1.8,1.1-3.6,2.1-5.5,2.1s-3.8-1.1-5.5-2.1c-1.6-0.9-3.1-1.9-4.4-1.9v-2.1    c1.9,0,3.8,1.1,5.5,2.1c1.6,0.9,3.1,1.9,4.4,1.9c1.3,0,2.9-0.9,4.4-1.9c1.8-1.1,3.6-2.1,5.5-2.1s3.8,1.1,5.5,2.1    c1.6,0.9,3.1,1.9,4.4,1.9s2.9-0.9,4.4-1.9c1.8-1.1,3.6-2.1,5.5-2.1c1.9,0,3.8,1.1,5.5,2.1c1.6,0.9,3.1,1.9,4.4,1.9    c1.4,0,2.9-0.9,4.4-1.9c1.8-1.1,3.6-2.1,5.5-2.1s3.8,1.1,5.5,2.1c1.6,0.9,3.1,1.9,4.4,1.9C72.8,74.5,72.8,76.6,72.8,76.6z"/>		</g>		<g>			<path d="M72.8,88.5c-1.9,0-3.8-1.1-5.5-2.1c-1.6-0.9-3.1-1.9-4.4-1.9c-1.4,0-2.9,0.9-4.4,1.9c-1.8,1.1-3.6,2.1-5.5,2.1    s-3.8-1.1-5.5-2.1c-1.6-0.9-3.1-1.9-4.4-1.9c-1.3,0-2.9,0.9-4.4,1.9c-1.8,1.1-3.6,2.1-5.5,2.1c-1.9,0-3.8-1.1-5.5-2.1    c-1.6-0.9-3.1-1.9-4.4-1.9s-2.9,0.9-4.4,1.9c-1.8,1.1-3.6,2.1-5.5,2.1s-3.8-1.1-5.5-2.1c-1.6-0.9-3.1-1.9-4.4-1.9v-2.1    c1.9,0,3.8,1.1,5.5,2.1c1.6,0.9,3.1,1.9,4.4,1.9c1.3,0,2.9-0.9,4.4-1.9c1.8-1.1,3.6-2.1,5.5-2.1s3.8,1.1,5.5,2.1    c1.6,0.9,3.1,1.9,4.4,1.9s2.9-0.9,4.4-1.9c1.8-1.1,3.6-2.1,5.5-2.1c1.9,0,3.8,1.1,5.5,2.1c1.6,0.9,3.1,1.9,4.4,1.9    c1.4,0,2.9-0.9,4.4-1.9c1.8-1.1,3.6-2.1,5.5-2.1s3.8,1.1,5.5,2.1c1.6,0.9,3.1,1.9,4.4,1.9C72.8,86.4,72.8,88.5,72.8,88.5z"/>		</g>	</g>	<path class="live-moon" d="M17.2,36.9c-6.1,0-11-4.9-11-11s4.9-11,11-11s11,4.9,11,11S23.2,36.9,17.2,36.9z M17.2,17c-4.9,0-8.9,4-8.9,8.9  s4,8.9,8.9,8.9s8.9-4,8.9-8.9S22,17,17.2,17z"/></g></svg>