<svg xmlns="http://www.w3.org/2000/svg" xmlns:xlink="http://www.w3.org/1999/xlink" x="0px" y="0px" viewBox="0 0 100 100" style="enable-background:new 0 0 100 100;" xml:space="preserve"><g>	<g>		<path d="M50,56.8c-4,0-7.2-3.2-7.2-7.2s3.2-7.2,7.2-7.2s7.2,3.2,7.2,7.2S54,56.8,50,56.8z M50,44.9c-2.7,0-4.8,2.1-4.8,4.8   c0,2.7,2.1,4.8,4.8,4.8s4.8-2.1,4.8-4.8C54.8,47,52.7,44.9,50,44.9z"/>	</g>	<g class="driving-ship">		<g>			<path d="M55.2,11.8h-2.4V6.5C52.8,5.9,51.7,5,50,5c-1.7,0-2.8,0.9-2.8,1.5v5.3h-2.4V6.5c0-2.2,2.3-3.9,5.2-3.9s5.2,1.7,5.2,3.9    V11.8z"/>		</g>		<g>			<path d="M19.5,26.6l-3.7-3.7c-1.5-1.6-1.1-4.4,1-6.4c1.1-1.2,2.6-1.9,4-1.9c1,0,1.9,0.3,2.4,1l3.7,3.7L25.1,21l-3.7-3.7    c-0.2-0.2-0.5-0.2-0.7-0.2c-0.7,0-1.6,0.5-2.3,1.2c-1.2,1.2-1.4,2.6-1,3l3.7,3.7L19.5,26.6z"/>		</g>		<g>			<path d="M12.2,54.8H6.8c-2.2,0-3.9-2.3-3.9-5.2s1.7-5.2,3.9-5.2h5.3v2.4H6.8c-0.6,0-1.5,1.1-1.5,2.8c0,1.7,0.9,2.8,1.5,2.8h5.3    V54.8z"/>		</g>		<g>			<path d="M20.8,84.7c-1.4,0-2.8-0.6-4-1.9c-1.2-1.1-1.9-2.6-1.9-4c0-1,0.3-1.9,1-2.4l3.7-3.7l1.7,1.7l-3.7,3.7    c-0.2,0.2-0.2,0.5-0.2,0.7c0,0.7,0.5,1.6,1.2,2.3c1.2,1.2,2.6,1.4,3,1l3.7-3.7l1.7,1.7l-3.7,3.7C22.6,84.5,21.7,84.7,20.8,84.7z"/>		</g>		<g>			<path d="M79.2,84.7c-1,0-1.8-0.3-2.4-1L73.1,80l1.7-1.7l3.7,3.7c0.2,0.2,0.5,0.2,0.7,0.2c0.7,0,1.6-0.5,2.3-1.2    c1.2-1.2,1.4-2.6,1-3.1l-3.7-3.7l1.7-1.7l3.7,3.7c1.5,1.6,1.1,4.4-1,6.4C82.1,84,80.7,84.7,79.2,84.7L79.2,84.7z"/>		</g>		<g>			<path d="M93.2,54.8h-5.3v-2.4h5.3c0.6,0,1.5-1.1,1.5-2.8c0-1.7-0.9-2.8-1.5-2.8h-5.3v-2.4h5.3c2.2,0,3.9,2.3,3.9,5.2    S95.3,54.8,93.2,54.8z"/>		</g>		<g>			<path d="M80.4,26.6l-1.7-1.7l3.7-3.7c0.2-0.2,0.2-0.5,0.2-0.7c0-0.7-0.5-1.6-1.2-2.3c-1.2-1.2-2.6-1.4-3.1-1l-3.7,3.7L73,19.2    l3.7-3.7c1.6-1.5,4.4-1.1,6.4,1c1.2,1.1,1.9,2.6,1.9,4c0,1-0.3,1.9-1,2.4L80.4,26.6z"/>		</g>	</g>	<g>		<rect x="48.8" y="23.7" width="2.4" height="12"/>	</g>	<g>		<rect x="34.7" y="29.5" transform="matrix(0.7071 -0.7071 0.7071 0.7071 -14.5898 35.775)" width="2.4" height="11.9"/>	</g>	<g>		<rect x="24.1" y="48.4" width="12" height="2.4"/>	</g>	<g>		<rect x="63.9" y="48.4" width="12" height="2.4"/>	</g>	<g>		<rect x="58.1" y="34.4" transform="matrix(0.7071 -0.7071 0.7071 0.7071 -6.4001 55.6951)" width="11.9" height="2.4"/>	</g>	<g>		<path d="M65.1,97.4h-2.4V49.6c0-7-5.7-12.7-12.7-12.7s-12.7,5.7-12.7,12.7v47.8h-2.4V49.6c0-8.3,6.8-15.1,15.1-15.1   s15.1,6.8,15.1,15.1V97.4z"/>	</g>	<g>		<path d="M35.4,72.5c-6.1-3.9-10.3-10-11.9-17c-1.5-7-0.2-14.3,3.6-20.4s10-10.3,17-11.9c7-1.5,14.3-0.2,20.4,3.6s10.3,10,11.8,17   c1.5,7,0.2,14.3-3.6,20.4c-2.1,3.3-4.9,6.1-8.3,8.3l-1.3-2c3-1.9,5.5-4.5,7.5-7.5c3.6-5.5,4.7-12.1,3.3-18.5   c-1.5-6.4-5.3-11.9-10.8-15.5s-12.1-4.7-18.5-3.3c-6.4,1.4-11.9,5.3-15.5,10.8S24.5,48.6,25.9,55c1.4,6.4,5.3,11.9,10.8,15.5   L35.4,72.5z"/>	</g>	<g>		<path d="M64.4,81.6l-1-2.2c7.3-3.2,13-9.1,16.3-16.3c7.5-16.4,0.1-35.7-16.4-43.2c-7.9-3.6-16.8-3.9-24.9-0.8   c-8.2,3.1-14.7,9.2-18.2,17.1C12.7,52.6,20.1,72,36.6,79.4l-1,2.2c-17.7-7.9-25.5-28.7-17.5-46.4c3.9-8.5,10.8-15.1,19.6-18.4   c8.7-3.3,18.3-3,26.8,0.8c8.5,3.9,15.1,10.8,18.4,19.6c3.3,8.7,3,18.3-0.8,26.8C78.4,71.8,72.2,78.1,64.4,81.6z"/>	</g></g></svg>