<svg xmlns="http://www.w3.org/2000/svg" xmlns:xlink="http://www.w3.org/1999/xlink" x="0px" y="0px" viewBox="0 0 100 100" style="enable-background:new 0 0 100 100;" xml:space="preserve"><g>	<g>		<path d="M84.4,91.6c-4.9-8.1-19.6-16.3-38.2-16.3S12.9,83.5,8,91.6l-1.8-1.1c5.2-8.5,20.6-17.2,40-17.2c19.3,0,34.7,8.7,39.9,17.2   L84.4,91.6z"/>		<g class="water-trees">			<path d="M51.9,66.1c-0.1,0-0.1,0-0.2,0H35c-5.7,0-10.3-4.5-10.3-10.3c0-3.6,1.8-6.8,4.8-8.7c-2-4.1-0.9-9.1,2.4-12    c-1.3-2-1.8-4.4-1.4-6.8c0.4-2.7,1.8-5.1,4.1-6.8c4.6-3.4,11.1-2.5,14.4,2c1.3,1.8,2,4.1,2,6.2c0,0.4,0,0.8-0.1,1.2    c5,1.4,8.2,6.4,7.4,11.6c-0.2,1.4-0.7,2.8-1.6,4.1c4.5,2.4,6.7,7.8,4.9,12.6C60,63.4,56.1,66.1,51.9,66.1z M40.7,21.4    c-1.8,0-3.5,0.5-5,1.7c-1.8,1.3-2.9,3.2-3.2,5.4c-0.3,2.2,0.3,4.4,1.6,6.2c0.1,0.2,0.3,0.5,0.2,0.7c-0.1,0.3-0.2,0.5-0.4,0.7    c-3.4,2.5-4.4,7.3-2.2,10.9c0.1,0.3,0.2,0.5,0.1,0.8c-0.1,0.3-0.3,0.5-0.5,0.6c-2.8,1.4-4.6,4.3-4.6,7.4c0.1,4.6,3.7,8.2,8.3,8.2    h16.8c3.4,0.1,6.6-2.1,7.8-5.4c1.6-4.3-0.7-9-4.9-10.6c-0.3-0.1-0.5-0.4-0.6-0.7s0-0.7,0.2-0.9c1.1-1.3,1.8-2.7,2-4.2    c0.7-4.5-2.2-8.7-6.7-9.5c-0.3-0.1-0.5-0.2-0.7-0.4c-0.1-0.2-0.2-0.5-0.1-0.7c0.1-0.6,0.2-1.2,0.2-1.8c0-1.8-0.6-3.5-1.6-5    c-1.3-1.8-3.2-2.9-5.4-3.2C41.4,21.5,41.1,21.4,40.7,21.4z"/>			<rect x="43.3" y="37.1" width="2" height="37.2"/>			<rect x="39.6" y="53.4" transform="matrix(0.4472 -0.8944 0.8944 0.4472 -29.0832 68.1353)" width="2" height="8.3"/>			<rect x="39.6" y="40.5" transform="matrix(0.4472 -0.8944 0.8944 0.4472 -17.47 61.0428)" width="2" height="8.3"/>			<rect x="43.8" y="51.1" transform="matrix(0.8306 -0.5569 0.5569 0.8306 -21.03 35.0928)" width="6.7" height="2"/>			<path d="M18.1,69.7c-3.2,0-6.2-1.2-8.4-3.4c-2.3-2.2-3.6-5.3-3.6-8.5c0-6.2,10.8-25.9,11.3-26.7l0.9-1.6l0.9,1.6    c0,0.1,3,5.3,5.7,11.2l-1.8,0.9c-1.8-3.9-3.7-7.4-4.7-9.5C14.8,40.2,8.2,53.5,8.2,57.8c0,2.6,1.1,5.2,3,7c1.9,1.9,4.4,2.9,7,2.9    c2.3,0,4.5-0.7,6.3-2l1.2,1.6c-2.1,1.6-4.7,2.4-7.4,2.4C18.2,69.7,18.2,69.7,18.1,69.7z"/>			<rect x="17.3" y="57.6" width="2" height="24.1"/>		</g>	</g>	<g class="live-sun">		<path d="M75.9,34.4c-4.7,0-8.4-3.8-8.4-8.4s3.8-8.4,8.4-8.4s8.4,3.8,8.4,8.4S80.6,34.4,75.9,34.4z M75.9,19.6   c-3.5,0-6.4,2.9-6.4,6.4s2.9,6.4,6.4,6.4s6.4-2.9,6.4-6.4S79.4,19.6,75.9,19.6z"/>		<g>			<rect x="74.9" y="7.4" width="2" height="5.6"/>		</g>		<g>			<rect x="63.7" y="12.1" transform="matrix(0.707 -0.7072 0.7072 0.707 8.433 50.1378)" width="2" height="5.5"/>		</g>		<g>			<rect x="57.3" y="25" width="5.6" height="2"/>		</g>		<g>			<rect x="62" y="36.2" transform="matrix(0.7012 -0.7129 0.7129 0.7012 -7.174 57.314)" width="5.6" height="2"/>		</g>		<g>			<rect x="74.9" y="39" width="2" height="5.5"/>		</g>		<g>			<rect x="86.1" y="34.4" transform="matrix(0.7131 -0.7011 0.7011 0.7131 -1.0675 71.7342)" width="2" height="5.6"/>		</g>		<g>			<rect x="89" y="25" width="5.5" height="2"/>		</g>		<g>			<rect x="84.3" y="13.8" transform="matrix(0.7071 -0.7071 0.7071 0.7071 15.0079 65.8772)" width="5.5" height="2"/>		</g>	</g></g></svg>