<svg xmlns="http://www.w3.org/2000/svg" xmlns:xlink="http://www.w3.org/1999/xlink" x="0px" y="0px" viewBox="0 0 100 100" style="enable-background:new 0 0 100 100;" xml:space="preserve"><style type="text/css">	.water-ship-0{fill:none;stroke:currentcolor;stroke-width:2;}	.water-ship-1{fill:none;stroke:currentcolor;stroke-width:2;stroke-linejoin:round;}</style><g>	<g class="live-fly">		<path class="water-ship-0" d="M14.7,12.1c5.6,0,10.1,3.4,10.1,8.1c0-4.7,4.5-8.1,10.1-8.1"/>		<path class="water-ship-0" d="M2.6,32.3c5.6,0,10.1,3.4,10.1,8.1c0-4.7,4.5-8.1,10.1-8.1"/>	</g>	<g class="live-bot">		<path class="water-ship-0" d="M6.6,90.9c3.3,0,6.8-4,10.1-4s6.8,4,10.1,4s6.8-4,10.1-4s6.8,4,10.1,4c3.3,0,6.8-4,10.1-4s6.8,4,10.1,4   c3.3,0,6.8-4,10.1-4c3.3,0,6.8,4,10.1,4c3.3,0,6.8-4,10.1-4"/>		<g>			<path class="water-ship-0" d="M69.1,81.7c2.5-1.9,4.6-4.3,6-7H18.8l4,6.1"/>			<path class="water-ship-0" d="M65.1,74.7L41,28.3v46.4"/>			<line class="water-ship-0" x1="41" y1="42.4" x2="24.4" y2="74.7"/>		</g>	</g>	<g class="live-sun">		<circle class="water-ship-1" cx="77.2" cy="28.3" r="8.1"/>		<line class="water-ship-1" x1="77.2" y1="8.1" x2="77.2" y2="14.2"/>		<line class="water-ship-1" x1="62.9" y1="14" x2="67.2" y2="18.3"/>		<line class="water-ship-1" x1="57" y1="28.3" x2="63.1" y2="28.3"/>		<line class="water-ship-1" x1="62.9" y1="42.6" x2="67.2" y2="38.3"/>		<line class="water-ship-1" x1="77.2" y1="48.5" x2="77.2" y2="42.4"/>		<line class="water-ship-1" x1="91.5" y1="42.6" x2="87.2" y2="38.3"/>		<line class="water-ship-1" x1="97.4" y1="28.3" x2="91.3" y2="28.3"/>		<line class="water-ship-1" x1="91.5" y1="14" x2="87.2" y2="18.3"/>	</g></g></svg>