<svg xmlns="http://www.w3.org/2000/svg" xmlns:xlink="http://www.w3.org/1999/xlink" x="0px" y="0px" viewBox="0 0 100 100" style="enable-background:new 0 0 100 100;" xml:space="preserve">	<g>		<path d="M51.4,98.5c-20.9,0-38-20.5-38-45.7c0-4.1,0.5-8.2,1.4-12.2c0.1-0.6,0.7-1,1.3-1c0.6,0.1,1.1,0.6,1.1,1.3  c0,5,14.1,10.5,34.2,10.5s34.2-5.5,34.2-10.5c0-0.6,0.4-1.2,1.1-1.3c0.6-0.1,1.2,0.4,1.3,1c0.9,4,1.4,8.1,1.4,12.2  C89.4,78,72.3,98.5,51.4,98.5 M16.4,45c-0.4,2.6-0.6,5.2-0.6,7.8c0,23.8,16,43.1,35.6,43.1s35.6-19.3,35.6-43.1  c0-2.6-0.2-5.2-0.6-7.8c-1.8,2.1-5,3.9-9.6,5.5c-8.2,2.5-16.8,3.6-25.4,3.5c-8.6,0.1-17.2-1-25.4-3.5C21.4,49,18.2,47.1,16.4,45"/>		<path d="M19.6,62.8c-0.3-1.3-0.5-2.6-0.6-3.9l2.4-0.3c0.2,1.2,0.4,2.4,0.6,3.6L19.6,62.8z"/>		<path d="M36.2,88.4c-7.4-4.8-13-12.7-15.8-22.4l2.3-0.7c2.6,9.1,7.8,16.5,14.7,21L36.2,88.4z"/>		<path d="M51.4,54c-8.6,0.1-17.2-1-25.4-3.5C18.6,48,14.7,44.8,14.7,41c0-0.1,0-0.2,0-0.3c0.2-0.7,0.3-1.4,0.5-2  c0-0.1,0.1-0.2,0.1-0.2c3.1-6.2,17.9-10.5,36-10.5s32.9,4.3,36,10.5c0,0.1,0.1,0.2,0.1,0.2c0.2,0.7,0.4,1.4,0.5,2  c0,0.1,0,0.2,0,0.3c0,3.8-3.9,7.1-11.3,9.5C68.5,52.9,59.9,54.1,51.4,54 M17.1,41.1c0.3,4.9,14.3,10.3,34.2,10.3S85.3,46,85.6,41.1  c-0.1-0.5-0.3-1.1-0.4-1.6c-2.4-4.4-15-9-33.8-9s-31.4,4.6-33.8,9C17.4,40,17.2,40.5,17.1,41.1"/>		<path d="M51.4,48.3c-16.2,0-26.6-3.4-30.6-6.4c-0.6-0.4-0.7-1.3-0.2-1.9c0.1-0.1,0.2-0.2,0.2-0.2  c4-2.9,14.4-6.4,30.6-6.4S78,36.9,82,39.9c0.6,0.4,0.7,1.3,0.2,1.9c-0.1,0.1-0.2,0.2-0.2,0.2C78,44.9,67.5,48.3,51.4,48.3   M23.8,40.9c4.2,2.2,13.3,4.9,27.5,4.9s23.3-2.7,27.5-4.9c-4.2-2.2-13.3-4.9-27.5-4.9S28.1,38.8,23.8,40.9"/>	</g>	<path class="piller" d="M58.3,47.4l-2.3-0.9L68.3,10c0.1-0.4,0.5-0.7,0.9-0.8l16-3.1l0.4,2.5l-15.3,3L58.3,47.4z"/>	<g class="ubberla">		<path d="M13,30.1c-0.2,0-0.3,0-0.5-0.1c-0.3-0.1-0.5-0.4-0.7-0.7c-3.6-10.3,1-21.8,10.6-26.1  c2.4-1.1,4.9-1.6,7.5-1.6c7.6,0.1,14.4,4.7,17.5,11.7c0.1,0.3,0.2,0.7,0,1c-0.1,0.3-0.3,0.6-0.7,0.7L13.5,30  C13.3,30,13.2,30.1,13,30.1 M30,4.1c-2.3,0-4.5,0.5-6.6,1.4c-8.1,3.9-12.1,13-9.7,21.6l31-14C41.8,7.6,36.2,4.1,30,4.1"/>		<path d="M21.8,4.8l2.2-1L41.3,46l-2.2,1L21.8,4.8z"/>		<path d="M18.7,26C16.4,14.5,20.4,5.7,22,3.5l1.9,1.6c-1.1,1.6-4.9,9.6-2.9,20.4L18.7,26z"/>		<path d="M38.6,17.5c-5.8-9.1-13.9-11.7-15.8-12L23.1,3c2.6,0.3,11.3,3.4,17.5,13.1L38.6,17.5z"/>	</g></svg>