<svg xmlns="http://www.w3.org/2000/svg" xmlns:xlink="http://www.w3.org/1999/xlink" x="0px" y="0px" viewBox="0 0 100 100" style="enable-background:new 0 0 100 100;" xml:space="preserve"><style type="text/css">	.man-0{fill:none;stroke:currentcolor;stroke-width:2;stroke-linecap:round;stroke-linejoin:round;}	.man-1{fill:none;stroke:currentcolor;stroke-width:2;}</style><g>	<g class="stick">		<line class="man-0" x1="74.6" y1="50" x2="69.3" y2="98.2"/>		<line class="man-0" x1="77.4" y1="28.6" x2="75.5" y2="43.4"/>	</g>	<g>		<path class="man-0" d="M62.9,98.2V70.3L51.6,56.1l2.1-9.9"/>		<path class="man-0" d="M33.1,98.2l9.1-15.5l3-14.4"/>		<path class="man-0" d="M35,57l-1,20.8L23.4,98.2"/>		<circle class="man-1" cx="50" cy="10.4" r="8.6"/>		<path class="man-0" d="M47.9,38.2l10.7,12.8c0,0,10.2-0.1,13-0.1c2.9,0,7.6-3.8,8.3-7.4c-2.6,0-17-1.1-17-1.1   s-6.6-10.2-9.6-14.3C50.4,24.3,41,23.6,40,29.7l-4.8,25.2c-1,6.4,3,8,6.6,10.6l12.5,9.2v23.6"/>		<path class="man-0" d="M41.8,26.2c-2.3-7.5-7.7-9.5-11.7-8.4c-4,1.1-6.7,4.6-5.6,9.2c-4.2,5.6-4.4,27-4.4,27   s7.4,4.6,14.9,2.2"/>		<path class="man-0" d="M24.8,27.2c1.5,2.5,5.9,3.6,8,1.4"/>	</g></g></svg>