<svg xmlns="http://www.w3.org/2000/svg" xmlns:xlink="http://www.w3.org/1999/xlink" x="0px" y="0px" viewBox="0 0 100 100" style="enable-background:new 0 0 100 100;" xml:space="preserve"><style type="text/css">	.water0{fill:none;stroke:currentcolor;stroke-width:2;}	.water1{fill:none;stroke:currentcolor;stroke-width:2;stroke-linejoin:round;}</style><g>	<g class="fly">		<path class="water0" d="M12.9,9.7c5.9,0,10.6,3.6,10.6,8.5c0-4.9,4.7-8.5,10.6-8.5"/>		<path class="water0" d="M0.2,30.9c5.9,0,10.6,3.6,10.6,8.5c0-4.9,4.7-8.5,10.6-8.5"/>	</g>	<g class="bot">		<path class="water0" d="M4.4,92.4c3.5,0,7.1-4.2,10.6-4.2s7.1,4.2,10.6,4.2s7.1-4.2,10.6-4.2s7.1,4.2,10.6,4.2s7.1-4.2,10.6-4.2   s7.1,4.2,10.6,4.2s7.1-4.2,10.6-4.2s7.1,4.2,10.6,4.2s7.1-4.2,10.6-4.2"/>		<g>			<path class="water0" d="M70.1,82.8c2.6-2,4.8-4.5,6.3-7.4H17.2l4.2,6.4"/>			<path class="water0" d="M65.9,75.4L40.5,26.7v48.7"/>			<line class="water0" x1="40.5" y1="41.5" x2="23.1" y2="75.4"/>		</g>	</g>	<g class="sun">		<circle class="water1" cx="78.6" cy="26.7" r="8.5"/>		<line class="water1" x1="78.6" y1="5.5" x2="78.6" y2="11.9"/>		<line class="water1" x1="63.6" y1="11.7" x2="68.1" y2="16.2"/>		<line class="water1" x1="57.4" y1="26.7" x2="63.8" y2="26.7"/>		<line class="water1" x1="63.6" y1="41.7" x2="68.1" y2="37.2"/>		<line class="water1" x1="78.6" y1="47.9" x2="78.6" y2="41.5"/>		<line class="water1" x1="93.6" y1="41.7" x2="89.1" y2="37.2"/>		<line class="water1" x1="99.8" y1="26.7" x2="93.4" y2="26.7"/>		<line class="water1" x1="93.6" y1="11.7" x2="89.1" y2="16.2"/>	</g></g></svg>