<svg xmlns="http://www.w3.org/2000/svg" xmlns:xlink="http://www.w3.org/1999/xlink" x="0px" y="0px" viewBox="0 0 100 100" style="enable-background:new 0 0 100 100;" xml:space="preserve" class="">    <g transform="translate(0 0)">        <rect x="48.7" y="58.7" width="2.5" height="36.5"/>        <g transform="translate(0 0)">            <g>                <g>                    <defs>                        <rect x="4.5" y="3.5" width="91" height="92.9"/>                    </defs>                    <g class="ic-box-0">                        <path d="M81.2,28.1h-75c-0.8,0.1-1.5-0.5-1.6-1.3v-22c0-0.8,0.7-1.4,1.5-1.3h75c0.4,0,0.9,0.1,1.2,0.4      l12.7,11c0.5,0.4,0.5,1,0.2,1.5c-0.1,0.1-0.1,0.1-0.2,0.2l-12.7,11C82.1,27.9,81.6,28.1,81.2,28.1 M7.8,25.6h72.7l11.2-9.7      L80.4,6.1H7.8V25.6z"/>                        <path d="M93.9,59.9h-75c-0.4,0-0.9-0.1-1.2-0.4L5,48.5c-0.5-0.4-0.6-1-0.2-1.5c0.1-0.1,0.1-0.1,0.2-0.2      l12.7-11c0.3-0.3,0.8-0.4,1.2-0.4h75c0.8-0.1,1.5,0.5,1.6,1.3v22C95.4,59.5,94.7,60,93.9,59.9 M19.5,57.4h72.7V37.9H19.6      L8.3,47.7L19.5,57.4z"/>                        <rect x="30.4" y="93.9" width="39.3" height="2.5"/>                        <rect x="48.4" y="26.8" width="3.3" height="9.8"/>                    </g>                </g>            </g>        </g>    </g></svg>