<svg xmlns="http://www.w3.org/2000/svg" xmlns:xlink="http://www.w3.org/1999/xlink" x="0px" y="0px" viewBox="0 0 80 47.3" style="enable-background:new 0 0 80 47.3;" xml:space="preserve">	<g>		<g class="weels">			<path d="M16.4,46.4c-8.2,0-14.8-6.6-14.8-14.8s6.6-14.8,14.8-14.8s14.8,6.6,14.8,14.8l0,0   C31.2,39.8,24.6,46.4,16.4,46.4 M16.4,18.5c-7.2,0-13.1,5.9-13.1,13.1s5.9,13.1,13.1,13.1s13.1-5.9,13.1-13.1   C29.5,24.3,23.6,18.5,16.4,18.5"/>			<path d="M63.6,46.4c-8.2,0-14.8-6.6-14.8-14.8s6.6-14.8,14.8-14.8c8.2,0,14.8,6.6,14.8,14.8c0,0,0,0,0,0   C78.5,39.8,71.8,46.4,63.6,46.4 M63.6,18.5c-7.2,0-13.1,5.9-13.1,13.1s5.9,13.1,13.1,13.1c7.2,0,13.1-5.9,13.1-13.1c0,0,0,0,0,0   C76.7,24.3,70.9,18.5,63.6,18.5"/>		</g>		<g>			<path d="M40.2,32.4H16.9c-0.5,0-0.9-0.4-0.9-0.9c0-0.2,0-0.3,0.1-0.4l11.7-20.3c0.2-0.4,0.8-0.6,1.2-0.3   c0.1,0.1,0.2,0.2,0.3,0.3L41,31.1c0.2,0.4,0.1,0.9-0.3,1.2C40.6,32.4,40.4,32.4,40.2,32.4 M18.4,30.7h20.4L28.6,13.1L18.4,30.7z"/>			<rect x="31.7" y="3" transform="matrix(0.8671 -0.4981 0.4981 0.8671 -4.7893 18.6763)" width="1.7" height="30.6"/>			<path d="M40.2,32.4c-0.3,0-0.6-0.2-0.8-0.4L27.8,11.8c-0.2-0.4-0.1-0.9,0.3-1.2c0.1-0.1,0.3-0.1,0.4-0.1h23.4   c0.5,0,0.9,0.4,0.9,0.9c0,0.2,0,0.3-0.1,0.4L41,32C40.8,32.3,40.6,32.4,40.2,32.4 M30.1,12.2l10.2,17.7l10.2-17.7H30.1z"/>			<path d="M24.3,6.2c-1.2,0-4.8,0-4.8-2.6s3.6-2.6,4.8-2.6c0.1,0,8.2,0.2,8.2,2.6C32.5,4.7,31.1,6.2,24.3,6.2    M24.3,2.6c-0.9,0-3,0.1-3,0.9s2.1,0.9,3,0.9c2.1,0.1,4.2-0.2,6.1-0.8C28.5,3,26.4,2.6,24.3,2.6"/>			<path d="M62.9,32L47.6,5.5c-0.2-0.4-0.1-0.9,0.3-1.2c0.1-0.1,0.3-0.1,0.4-0.1h8.7c2.3,0,4.2,1.9,4.2,4.2   s-1.9,4.2-4.2,4.2v-1.7c1.4,0,2.5-1.1,2.5-2.4c0-1.4-1.1-2.5-2.4-2.5c0,0-0.1,0-0.1,0h-7.2l14.5,25.2L62.9,32z"/>		</g>	</g></svg>