<svg xmlns="http://www.w3.org/2000/svg" xmlns:xlink="http://www.w3.org/1999/xlink" x="0px" y="0px" viewBox="0 0 172.4 168.2" style="enable-background:new 0 0 172.4 168.2;" xml:space="preserve"><style type="text/css">	.play-rotate-0{enable-background:new; fill:#ffffff;}	.play-rotate-1{fill:none;stroke:#ffffff;stroke-width:2;stroke-linecap:round;stroke-linejoin:round;}	.play-rotate-2{fill:#ffffff;}</style><g>	<g>		<path class="play-rotate-2" d="M91.1,83.8l-6.1-4.5c-0.4-0.3-1,0.1-1,0.7V89c0,0.6,0.5,1.1,1,0.7l6.1-4.5   C91.5,84.9,91.6,84.3,91.1,83.8C91.2,83.9,91.2,83.9,91.1,83.8"/>	</g></g><g class="custon-play-icon-rotate-text">	<g>		<g class="play-rotate-0">			<path d="M36.3,129.5l8.3-9.2l6.2,5.6l-1,1.1l-5-4.5l-2.6,2.8l4.3,3.9l-1,1.1l-4.3-3.9l-3.8,4.2L36.3,129.5z"/>		</g>		<g class="play-rotate-0">			<path d="M45.7,131.8c0.9-1.4,2-2.1,3.2-2.3c1-0.1,2,0.1,2.9,0.7c1,0.7,1.6,1.6,1.8,2.7c0.2,1.1-0.1,2.2-0.9,3.4    c-0.6,1-1.3,1.6-1.9,2c-0.7,0.4-1.4,0.5-2.1,0.4c-0.8-0.1-1.5-0.3-2.1-0.7c-1-0.7-1.7-1.6-1.9-2.7    C44.5,134.2,44.8,133,45.7,131.8z M47,132.6c-0.6,1-0.9,1.8-0.8,2.6c0.1,0.8,0.5,1.3,1.1,1.8c0.6,0.4,1.3,0.5,2,0.3    c0.7-0.2,1.4-0.8,2.1-1.8c0.6-0.9,0.9-1.8,0.8-2.5c-0.1-0.8-0.5-1.3-1.1-1.8c-0.6-0.4-1.3-0.5-2-0.3    C48.3,131.1,47.6,131.7,47,132.6z"/>		</g>		<g class="play-rotate-0">			<path d="M53.3,141.8l4-8l1.2,0.6l-0.6,1.2c0.6-0.4,1.1-0.7,1.4-0.7c0.4-0.1,0.7,0,1,0.2c0.5,0.2,0.9,0.6,1.2,1.1l-1.1,1    c-0.2-0.4-0.5-0.6-0.9-0.8c-0.3-0.1-0.6-0.2-0.9-0.1c-0.3,0.1-0.6,0.2-0.9,0.5c-0.4,0.4-0.7,0.9-1,1.5l-2.1,4.2L53.3,141.8z"/>		</g>		<g class="play-rotate-0">			<path d="M66.6,144.2l1.4,0.7c-0.5,0.8-1.2,1.3-2,1.6s-1.7,0.2-2.7-0.1c-1.2-0.4-2.1-1.1-2.6-2.2c-0.5-1-0.5-2.2,0-3.6    c0.5-1.4,1.2-2.4,2.2-2.9c1-0.5,2.1-0.6,3.3-0.2c1.1,0.4,1.9,1.1,2.4,2.1c0.5,1,0.4,2.2,0,3.6c0,0.1-0.1,0.2-0.1,0.4l-6.3-2.2    c-0.3,0.9-0.3,1.8,0.1,2.4c0.3,0.7,0.8,1.1,1.5,1.4c0.5,0.2,1,0.2,1.5,0.1C65.8,145.1,66.2,144.7,66.6,144.2z M62.7,140.2    l4.7,1.6c0.2-0.7,0.2-1.3,0-1.8c-0.3-0.7-0.8-1.2-1.5-1.4c-0.7-0.2-1.3-0.2-1.9,0.1C63.5,139,63,139.5,62.7,140.2z"/>		</g>		<g class="play-rotate-0">			<path d="M70,145.4l1.5,0.1c0,0.6,0.1,1.1,0.4,1.5c0.3,0.4,0.8,0.7,1.5,0.8c0.7,0.1,1.2,0.1,1.6-0.1c0.4-0.2,0.6-0.5,0.7-0.9    c0.1-0.3,0-0.6-0.3-0.9c-0.2-0.2-0.7-0.4-1.4-0.8c-1-0.5-1.7-0.9-2.1-1.2c-0.4-0.3-0.6-0.6-0.8-1c-0.1-0.4-0.2-0.8-0.1-1.2    c0.1-0.4,0.2-0.7,0.5-1c0.2-0.3,0.5-0.5,0.9-0.7c0.3-0.1,0.6-0.2,1-0.2c0.4,0,0.9,0,1.3,0.1c0.7,0.1,1.3,0.4,1.8,0.7    c0.5,0.3,0.8,0.6,1,1s0.3,0.9,0.2,1.5l-1.5-0.1c0-0.5-0.1-0.9-0.4-1.2c-0.3-0.3-0.7-0.5-1.3-0.6c-0.7-0.1-1.2-0.1-1.5,0    c-0.3,0.2-0.5,0.4-0.6,0.7c0,0.2,0,0.4,0.1,0.6c0.1,0.2,0.3,0.4,0.5,0.5c0.1,0.1,0.6,0.3,1.2,0.6c1,0.5,1.7,0.9,2.1,1.1    c0.4,0.3,0.7,0.6,0.8,1c0.2,0.4,0.2,0.8,0.1,1.3c-0.1,0.5-0.3,0.9-0.7,1.3c-0.4,0.4-0.9,0.6-1.5,0.8c-0.6,0.1-1.2,0.1-1.9,0    c-1.1-0.2-2-0.6-2.5-1.2C70.2,147.1,69.9,146.3,70,145.4z"/>		</g>		<g class="play-rotate-0">			<path d="M81.8,148.5l0.1,1.4c-0.4,0.1-0.8,0.1-1.2,0c-0.5,0-1-0.2-1.3-0.4c-0.3-0.2-0.5-0.4-0.6-0.7c-0.1-0.3-0.1-0.9,0-1.8    l0.4-5.1l-1.1-0.1l0.1-1.2l1.1,0.1l0.2-2.2l1.6-0.8l-0.3,3.1l1.5,0.1l-0.1,1.2l-1.5-0.1l-0.5,5.2c0,0.4,0,0.7,0,0.8    c0,0.1,0.1,0.2,0.2,0.3c0.1,0.1,0.3,0.1,0.5,0.2C81.3,148.5,81.5,148.5,81.8,148.5z"/>		</g>		<g class="play-rotate-0">			<path d="M93.6,149.9l-5.3-11.6l1.7-0.3l3.2,7.7c0.3,0.8,0.7,1.6,0.9,2.4c0.1-1.4,0.1-2.1,0.2-2.3l0.9-8.6l1.9-0.3l2.8,5.9    c0.7,1.5,1.3,2.8,1.7,4.2c0-0.8,0.1-1.7,0.2-2.8l0.6-8.2l1.6-0.3l-1.3,12.8l-1.6,0.3l-4.2-8.8c-0.3-0.7-0.6-1.2-0.6-1.4    c0,0.6-0.1,1.1-0.1,1.5l-1,9.7L93.6,149.9z"/>		</g>		<g class="play-rotate-0">			<path d="M108.3,142.2c-0.6-1.5-0.7-2.8-0.1-3.9c0.5-0.9,1.2-1.6,2.2-2c1.1-0.5,2.2-0.5,3.3,0c1,0.4,1.8,1.3,2.4,2.6    c0.4,1.1,0.6,2,0.6,2.7c-0.1,0.7-0.3,1.4-0.8,2c-0.5,0.6-1.1,1-1.8,1.3c-1.2,0.5-2.2,0.5-3.3,0    C109.6,144.5,108.8,143.6,108.3,142.2z M109.7,141.6c0.4,1.1,1,1.8,1.7,2.1c0.7,0.3,1.4,0.4,2.1,0.1c0.7-0.3,1.2-0.8,1.4-1.5    c0.2-0.7,0.1-1.6-0.3-2.7c-0.4-1-1-1.7-1.7-2s-1.4-0.4-2.1-0.1c-0.7,0.3-1.2,0.8-1.4,1.5C109.2,139.6,109.3,140.5,109.7,141.6z"/>		</g>		<g class="play-rotate-0">			<path d="M120.8,141.5l-4.5-7.8l1.2-0.7l0.7,1.2c0-0.7,0.1-1.2,0.2-1.6c0.2-0.3,0.4-0.6,0.7-0.7c0.4-0.3,1-0.4,1.6-0.4l0.3,1.5    c-0.4,0-0.8,0.1-1.1,0.3c-0.3,0.2-0.5,0.4-0.6,0.7c-0.1,0.3-0.2,0.6-0.1,1c0.1,0.6,0.3,1.1,0.7,1.7l2.3,4.1L120.8,141.5z"/>		</g>		<g class="play-rotate-0">			<path d="M126.8,137.8l-7.1-10.1l1.2-0.9l7.1,10.1L126.8,137.8z"/>		</g>		<g class="play-rotate-0">			<path d="M135.8,130.7l-0.8-0.8c0.2,1-0.2,1.9-1,2.7c-0.5,0.5-1.2,0.8-1.9,0.9c-0.7,0.1-1.4,0-2.1-0.3c-0.7-0.3-1.4-0.8-2-1.5    c-0.6-0.7-1-1.4-1.3-2.1c-0.3-0.7-0.3-1.5-0.1-2.1c0.2-0.7,0.6-1.3,1.1-1.8c0.4-0.4,0.8-0.6,1.3-0.7c0.5-0.1,0.9-0.1,1.4,0    l-2.9-3.3l1.1-1l8.2,9.2L135.8,130.7z M129.3,130.5c0.8,0.9,1.5,1.3,2.3,1.4c0.7,0.1,1.4-0.1,1.8-0.5c0.5-0.4,0.7-1,0.7-1.7    c0-0.7-0.4-1.5-1.1-2.3c-0.8-0.9-1.6-1.4-2.3-1.5c-0.7-0.1-1.4,0.1-1.9,0.5c-0.5,0.4-0.7,1-0.7,1.7    C128.1,128.8,128.5,129.6,129.3,130.5z"/>		</g>	</g>	<g>		<g class="play-rotate-0">			<path d="M32.2,76.7l-11.9-8.5l0.5-1.9l14.6-2l-0.5,2l-4.4,0.5l-1.4,5.5l3.6,2.5L32.2,76.7z M27.8,71.5l1.2-4.5l-4,0.4    c-1.2,0.1-2.2,0.2-3,0.2c0.8,0.4,1.6,0.8,2.3,1.4L27.8,71.5z"/>		</g>		<g class="play-rotate-0">			<path d="M38.6,58.3l-1.1-0.6c0.6,1,0.6,2,0.1,3.1c-0.4,0.7-0.9,1.3-1.6,1.6s-1.5,0.6-2.3,0.6c-0.9,0-1.7-0.3-2.6-0.7    c-0.9-0.4-1.6-1-2.2-1.6c-0.6-0.7-0.9-1.4-1-2.1c-0.1-0.8,0-1.5,0.4-2.3c0.3-0.5,0.6-0.9,1-1.3c0.4-0.3,0.9-0.5,1.4-0.6l-4.4-2.2    l0.7-1.5l12.2,6.1L38.6,58.3z M31.8,60.8c1.1,0.6,2.1,0.8,2.9,0.6c0.8-0.2,1.4-0.6,1.7-1.3c0.3-0.7,0.3-1.3,0-2.1    c-0.3-0.7-1-1.4-2.1-1.9c-1.2-0.6-2.2-0.8-3-0.6c-0.8,0.2-1.4,0.6-1.7,1.3c-0.3,0.7-0.3,1.4,0,2.1C29.9,59.6,30.7,60.2,31.8,60.8    z"/>		</g>		<g class="play-rotate-0">			<path d="M42.5,52.2l-10.1-3l1.1-1.4l6,1.9c0.6,0.2,1.3,0.4,2,0.7c-0.3-0.4-0.7-1-1.1-1.6l-3.5-5.4l1-1.4l5.6,8.9L42.5,52.2z"/>		</g>		<g class="play-rotate-0">			<path d="M49.3,40.3l1.4-1c0.5,0.9,0.6,1.8,0.5,2.8c-0.2,0.9-0.7,1.7-1.5,2.5c-1.1,1-2.2,1.4-3.4,1.3c-1.2-0.1-2.4-0.7-3.5-1.9    c-1.1-1.2-1.7-2.5-1.7-3.7c0-1.3,0.5-2.3,1.5-3.3c1-0.9,2.1-1.3,3.3-1.2c1.2,0.1,2.4,0.7,3.5,1.9c0.1,0.1,0.2,0.2,0.3,0.3l-5.4,5    c0.8,0.8,1.6,1.2,2.4,1.2c0.8,0.1,1.5-0.2,2.1-0.8c0.5-0.4,0.7-0.9,0.8-1.4C49.7,41.6,49.6,41,49.3,40.3z M43.5,42l4-3.7    c-0.6-0.6-1.2-0.9-1.7-0.9c-0.8-0.1-1.6,0.1-2.2,0.7c-0.6,0.5-0.9,1.1-0.9,1.9S42.9,41.4,43.5,42z"/>		</g>		<g class="play-rotate-0">			<path d="M53.9,40.6l-5.2-8.4l1.3-0.8l0.7,1.2c0-1.3,0.7-2.3,1.8-3c0.5-0.3,1-0.5,1.6-0.6c0.5-0.1,1,0,1.4,0.1    c0.4,0.2,0.8,0.4,1.1,0.8c0.2,0.2,0.5,0.7,0.9,1.3l3.2,5.2l-1.4,0.9l-3.2-5.1c-0.4-0.6-0.7-1-1-1.2c-0.3-0.2-0.6-0.3-1-0.3    c-0.4,0-0.8,0.1-1.1,0.4c-0.6,0.4-1,0.9-1.2,1.5c-0.2,0.7,0,1.5,0.7,2.6l2.8,4.6L53.9,40.6z"/>		</g>		<g class="play-rotate-0">			<path d="M66,32.5l0.8,1.3c-0.4,0.3-0.8,0.5-1.1,0.6c-0.6,0.2-1,0.3-1.4,0.3c-0.4,0-0.7-0.2-0.9-0.4c-0.2-0.2-0.6-0.8-0.9-1.7    l-2.2-5.2l-1.1,0.5l-0.5-1.2l1.1-0.5l-0.9-2.3l1.2-1.6l1.3,3.2l1.6-0.6l0.5,1.2l-1.6,0.6l2.2,5.3c0.2,0.4,0.3,0.7,0.4,0.8    c0.1,0.1,0.2,0.2,0.4,0.2c0.2,0,0.3,0,0.6-0.1C65.5,32.8,65.7,32.7,66,32.5z"/>		</g>		<g class="play-rotate-0">			<path d="M75.7,31.3l-0.3-1.4c-0.5,1.3-1.4,2-2.7,2.3c-0.6,0.1-1.1,0.1-1.7,0c-0.5-0.1-1-0.3-1.3-0.6c-0.3-0.3-0.6-0.6-0.8-1.1    c-0.1-0.3-0.3-0.8-0.5-1.5l-1.4-5.9l1.6-0.4l1.2,5.3c0.2,0.9,0.4,1.4,0.5,1.7c0.2,0.4,0.5,0.7,0.9,0.9c0.4,0.2,0.8,0.2,1.3,0.1    s0.9-0.3,1.3-0.7c0.4-0.3,0.6-0.8,0.7-1.2c0.1-0.5,0-1.1-0.2-1.9l-1.2-5.1l1.6-0.4l2.2,9.6L75.7,31.3z"/>		</g>		<g class="play-rotate-0">			<path d="M79.8,30.7l-0.7-9.8l1.5-0.1l0.1,1.5c0.3-0.7,0.7-1.2,1-1.5c0.3-0.2,0.7-0.4,1-0.4c0.6,0,1.1,0.1,1.8,0.4l-0.5,1.6    c-0.4-0.2-0.8-0.3-1.2-0.3c-0.4,0-0.7,0.2-1,0.4c-0.3,0.2-0.5,0.6-0.6,1c-0.1,0.6-0.2,1.3-0.1,2l0.4,5.1L79.8,30.7z"/>		</g>		<g class="play-rotate-0">			<path d="M93.3,27.6L95,28c-0.4,1-0.9,1.7-1.7,2.2c-0.8,0.5-1.7,0.7-2.9,0.6c-1.4-0.1-2.5-0.7-3.3-1.6c-0.8-1-1.1-2.2-1-3.8    c0.1-1.7,0.7-2.9,1.6-3.7c0.9-0.8,2.1-1.2,3.4-1.1c1.3,0.1,2.3,0.6,3.1,1.6c0.8,1,1.1,2.3,0.9,3.9c0,0.1,0,0.2,0,0.4l-7.3-0.6    c0,1.1,0.2,1.9,0.7,2.6c0.5,0.6,1.2,1,2,1c0.6,0.1,1.1-0.1,1.6-0.4C92.6,28.8,93,28.3,93.3,27.6z M88.1,24.5l5.5,0.5    c0-0.8-0.2-1.5-0.5-1.9c-0.5-0.7-1.1-1.1-2-1.1c-0.8-0.1-1.4,0.1-2,0.6C88.6,23,88.2,23.6,88.1,24.5z"/>		</g>		<g class="play-rotate-0">			<path d="M96.4,28.3l1.7,0.2c-0.1,0.7,0,1.2,0.4,1.7c0.3,0.4,0.9,0.8,1.6,1c0.7,0.2,1.3,0.2,1.8,0c0.4-0.2,0.7-0.5,0.8-0.9    c0.1-0.4,0-0.7-0.3-1c-0.2-0.2-0.7-0.5-1.5-1c-1.1-0.6-1.9-1.1-2.3-1.4c-0.4-0.3-0.7-0.7-0.8-1.2c-0.1-0.4-0.1-0.9,0-1.4    c0.1-0.4,0.3-0.8,0.6-1.1c0.3-0.3,0.6-0.5,1-0.7c0.3-0.1,0.7-0.2,1.1-0.2c0.5,0,0.9,0,1.4,0.2c0.7,0.2,1.4,0.5,1.9,0.8    c0.5,0.4,0.9,0.8,1,1.2c0.2,0.4,0.2,1,0.2,1.6l-1.6-0.2c0.1-0.5-0.1-0.9-0.3-1.3c-0.3-0.4-0.7-0.6-1.4-0.8    c-0.7-0.2-1.3-0.2-1.7,0c-0.4,0.2-0.6,0.4-0.7,0.7c-0.1,0.2,0,0.4,0.1,0.6c0.1,0.2,0.3,0.4,0.5,0.6c0.1,0.1,0.6,0.4,1.3,0.8    c1.1,0.6,1.8,1.1,2.2,1.4c0.4,0.3,0.7,0.7,0.8,1.1s0.2,0.9,0,1.5c-0.1,0.5-0.4,1-0.9,1.4c-0.4,0.4-1,0.6-1.6,0.8    c-0.7,0.1-1.4,0.1-2.1-0.1c-1.2-0.3-2.1-0.8-2.6-1.5S96.3,29.4,96.4,28.3z"/>		</g>		<g class="play-rotate-0">			<path d="M112,35.5l-0.5,1.4c-0.5-0.1-0.9-0.3-1.2-0.4c-0.5-0.3-0.9-0.6-1.1-0.9c-0.2-0.3-0.3-0.7-0.3-1s0.3-1,0.7-1.8l2.6-5.1    l-1.1-0.6l0.6-1.2l1.1,0.6l1.1-2.2l1.9-0.1l-1.6,3.1l1.5,0.8l-0.6,1.2l-1.5-0.8l-2.6,5.1c-0.2,0.4-0.3,0.7-0.3,0.9    c0,0.1,0,0.3,0.1,0.4c0.1,0.1,0.2,0.3,0.5,0.4C111.5,35.3,111.7,35.4,112,35.5z"/>		</g>		<g class="play-rotate-0">			<path d="M114.1,38.4l5.5-8.1l1.2,0.8l-0.8,1.2c0.7-0.4,1.3-0.5,1.7-0.5c0.4,0,0.8,0.1,1.1,0.3c0.5,0.3,0.8,0.8,1.1,1.4l-1.3,1    c-0.2-0.4-0.5-0.8-0.8-1c-0.3-0.2-0.6-0.3-1-0.3c-0.4,0-0.7,0.2-1,0.4c-0.5,0.4-0.9,0.9-1.3,1.5l-2.9,4.3L114.1,38.4z"/>		</g>		<g class="play-rotate-0">			<path d="M125,45.6c-0.8,0-1.5-0.2-2.1-0.4c-0.6-0.2-1.1-0.6-1.6-1c-0.8-0.7-1.2-1.5-1.3-2.3c-0.1-0.8,0.2-1.5,0.7-2.1    c0.3-0.4,0.7-0.6,1.1-0.7s0.9-0.2,1.3-0.1c0.4,0.1,0.8,0.2,1.3,0.4c0.3,0.2,0.7,0.4,1.3,0.8c1.1,0.8,2,1.3,2.6,1.6    c0.2-0.2,0.3-0.3,0.3-0.3c0.5-0.5,0.7-1,0.6-1.4c-0.1-0.6-0.4-1.1-1-1.7c-0.6-0.5-1.1-0.8-1.6-0.9c-0.5-0.1-1,0.1-1.6,0.5l-1-1.3    c0.6-0.4,1.1-0.7,1.7-0.7c0.5-0.1,1.1,0,1.8,0.3c0.6,0.3,1.3,0.7,1.9,1.3c0.6,0.6,1.1,1.1,1.3,1.6c0.3,0.5,0.4,0.9,0.3,1.3    c0,0.4-0.2,0.8-0.4,1.2c-0.2,0.2-0.5,0.6-1,1.2l-1.5,1.6c-1.1,1.1-1.7,1.9-1.9,2.2c-0.2,0.4-0.4,0.7-0.5,1.2l-1.3-1.2    C124.5,46.3,124.7,46,125,45.6z M127.4,42.8c-0.6-0.2-1.4-0.7-2.4-1.4c-0.6-0.4-1-0.6-1.3-0.7s-0.6-0.1-0.9,0    c-0.3,0.1-0.5,0.2-0.7,0.4c-0.3,0.3-0.4,0.7-0.4,1.2c0,0.4,0.3,0.9,0.8,1.3c0.5,0.4,1,0.7,1.5,0.9c0.6,0.1,1.1,0.1,1.6-0.1    c0.4-0.2,0.8-0.5,1.3-1L127.4,42.8z"/>		</g>		<g class="play-rotate-0">			<path d="M127.9,50.9l5.5-9l1.1,1.4l-3.4,5.3c-0.4,0.6-0.8,1.1-1.2,1.7c0.5-0.2,1.1-0.4,1.9-0.6l6.1-1.9l1,1.4l-10.1,3L127.9,50.9    z"/>		</g>		<g class="play-rotate-0">			<path d="M137.6,60.6l0.6,1.6c-1,0.2-1.9,0.1-2.8-0.3c-0.8-0.4-1.5-1.1-2-2.1c-0.7-1.3-0.8-2.5-0.4-3.7c0.4-1.2,1.3-2.1,2.7-2.8    c1.5-0.8,2.8-1,4-0.6c1.2,0.3,2.1,1.1,2.7,2.3c0.6,1.2,0.7,2.3,0.3,3.5c-0.4,1.2-1.3,2.1-2.8,2.8c-0.1,0-0.2,0.1-0.4,0.2    l-3.4-6.5c-0.9,0.6-1.5,1.2-1.8,2c-0.3,0.8-0.2,1.5,0.2,2.2c0.3,0.5,0.7,0.9,1.1,1.2C136.3,60.6,136.9,60.7,137.6,60.6z     M137.5,54.5l2.5,4.9c0.7-0.4,1.2-0.9,1.4-1.4c0.3-0.8,0.3-1.5-0.1-2.3c-0.4-0.7-0.9-1.1-1.6-1.4C139,54.1,138.3,54.1,137.5,54.5    z"/>		</g>		<g class="play-rotate-0">			<path d="M136,65.1l12.8-4.5l0.6,1.6l-12.8,4.5L136,65.1z"/>		</g>		<g class="play-rotate-0">			<path d="M140.3,68.5l0.6,1.6c-0.6,0.2-1.1,0.6-1.3,1.1c-0.3,0.5-0.3,1.1-0.1,1.8c0.2,0.7,0.4,1.3,0.8,1.6    c0.4,0.3,0.8,0.4,1.2,0.3c0.4-0.1,0.6-0.3,0.8-0.7c0.1-0.3,0.2-0.9,0.2-1.8c0-1.3,0.1-2.1,0.2-2.7c0.1-0.5,0.3-0.9,0.7-1.3    c0.3-0.3,0.7-0.5,1.2-0.6c0.4-0.1,0.8-0.1,1.3,0s0.8,0.3,1.1,0.6c0.2,0.2,0.5,0.5,0.7,0.9c0.2,0.4,0.4,0.9,0.5,1.4    c0.2,0.8,0.2,1.4,0.1,2.1c-0.1,0.6-0.3,1.1-0.6,1.5s-0.8,0.6-1.4,0.9l-0.6-1.5c0.5-0.2,0.8-0.5,1-0.9c0.2-0.4,0.2-0.9,0.1-1.6    c-0.2-0.7-0.4-1.3-0.7-1.5c-0.3-0.3-0.6-0.4-1-0.3c-0.2,0-0.4,0.2-0.5,0.3c-0.1,0.2-0.2,0.4-0.3,0.7c0,0.2-0.1,0.7-0.1,1.5    c-0.1,1.2-0.1,2.1-0.2,2.6c-0.1,0.5-0.3,0.9-0.6,1.3s-0.8,0.6-1.3,0.7c-0.5,0.1-1.1,0.1-1.6-0.1c-0.5-0.2-1-0.6-1.4-1.1    c-0.4-0.5-0.7-1.2-0.8-1.9c-0.3-1.3-0.2-2.3,0.2-3C138.7,69.5,139.3,68.9,140.3,68.5z"/>		</g>	</g></g><g>	<g>		<path class="play-rotate-1" d="M167.8,97.2c-7.2,45.3-49.8,76.2-95.1,69c-35.5-5.7-63.3-33.5-69-69   c5.2-2.3,8.6-7.4,8.6-13.1c0-5.7-3.4-10.8-8.6-13.1C10.9,25.7,53.5-5.2,98.8,2c35.5,5.7,63.3,33.5,69,69   c-7.2,3.1-10.5,11.5-7.4,18.7C161.8,93.1,164.5,95.7,167.8,97.2L167.8,97.2z"/>		<path class="play-rotate-1" d="M123.9,97.7c-7.5,21.1-30.7,32.1-51.8,24.6c-11.5-4.1-20.5-13.2-24.6-24.7"/>		<path class="play-rotate-1" d="M47.4,70.8c7.4-21.2,30.5-32.3,51.6-25c11.7,4.1,20.9,13.3,25,25"/>		<path class="play-rotate-2" d="M172.4,84.1c0,2-1.7,3.7-3.7,3.7c-2,0-3.7-1.7-3.7-3.7c0-2,1.7-3.7,3.7-3.7   C170.8,80.4,172.4,82,172.4,84.1"/>		<path class="play-rotate-2" d="M7.4,84.1c0,2-1.7,3.7-3.7,3.7S0,86.1,0,84.1s1.7-3.7,3.7-3.7S7.4,82,7.4,84.1L7.4,84.1"/>	</g></g></svg>